<svg width="11" height="10" viewBox="0 0 11 10" fill="none" xmlns="http://www.w3.org/2000/svg">
<path fill-rule="evenodd" clip-rule="evenodd" d="M5.68249 0.683495C5.74054 0.625291 5.80951 0.579112 5.88545 0.547604C5.96138 0.516096 6.04278 0.499878 6.12499 0.499878C6.2072 0.499878 6.2886 0.516096 6.36453 0.547604C6.44046 0.579112 6.50943 0.625291 6.56749 0.683495L10.3175 4.43349C10.3757 4.49155 10.4219 4.56052 10.4534 4.63645C10.4849 4.71238 10.5011 4.79379 10.5011 4.87599C10.5011 4.9582 10.4849 5.0396 10.4534 5.11554C10.4219 5.19147 10.3757 5.26044 10.3175 5.31849L6.56749 9.06849C6.45013 9.18585 6.29096 9.25178 6.12499 9.25178C5.95902 9.25178 5.79985 9.18585 5.68249 9.06849C5.56513 8.95114 5.4992 8.79196 5.4992 8.62599C5.4992 8.46002 5.56513 8.30085 5.68249 8.18349L8.99124 4.87599L5.68249 1.56849C5.62428 1.51044 5.57811 1.44147 5.5466 1.36554C5.51509 1.28961 5.49887 1.2082 5.49887 1.12599C5.49887 1.04379 5.51509 0.962384 5.5466 0.886453C5.57811 0.810521 5.62428 0.741552 5.68249 0.683495Z" fill="white"/>
<path fill-rule="evenodd" clip-rule="evenodd" d="M0.5 4.87598C0.5 4.71022 0.565848 4.55125 0.683058 4.43403C0.800269 4.31682 0.95924 4.25098 1.125 4.25098H9.25C9.41576 4.25098 9.57473 4.31682 9.69194 4.43403C9.80915 4.55125 9.875 4.71022 9.875 4.87598C9.875 5.04174 9.80915 5.20071 9.69194 5.31792C9.57473 5.43513 9.41576 5.50098 9.25 5.50098H1.125C0.95924 5.50098 0.800269 5.43513 0.683058 5.31792C0.565848 5.20071 0.5 5.04174 0.5 4.87598Z" fill="white"/>
</svg>
