<svg width="28" height="28" viewBox="0 0 28 28" fill="none" xmlns="http://www.w3.org/2000/svg">
<path fill-rule="evenodd" clip-rule="evenodd" d="M14.0004 0.666748C10.3791 0.666748 9.92572 0.681859 8.5035 0.746748C7.08394 0.811637 6.11416 1.03741 5.26616 1.36719C4.37727 1.70141 3.57105 2.22586 2.90439 2.90497C2.22636 3.57087 1.70159 4.37652 1.36661 5.26586C1.03861 6.11386 0.811942 7.08453 0.747053 8.50408C0.683053 9.92541 0.667053 10.3779 0.667053 14.0001C0.667053 17.6223 0.682164 18.0747 0.747053 19.497C0.811942 20.9165 1.03772 21.8863 1.3675 22.7343C1.70172 23.6232 2.22616 24.4294 2.90528 25.0961C3.57119 25.7741 4.37684 26.2988 5.26616 26.6339C6.11416 26.9627 7.08394 27.1885 8.5035 27.2534C9.92572 27.3183 10.3791 27.3334 14.0004 27.3334C17.6217 27.3334 18.0751 27.3183 19.4973 27.2534C20.9168 27.1885 21.8866 26.9627 22.7346 26.633C23.6235 26.2987 24.4297 25.7743 25.0964 25.0952C25.7744 24.4293 26.2992 23.6236 26.6342 22.7343C26.9631 21.8863 27.1888 20.9165 27.2537 19.497C27.3186 18.0747 27.3337 17.6214 27.3337 14.0001C27.3337 10.3787 27.3186 9.92542 27.2537 8.50319C27.1888 7.08364 26.9631 6.11386 26.6333 5.26586C26.2985 4.37614 25.7737 3.57014 25.0955 2.90408C24.4296 2.22606 23.6239 1.70129 22.7346 1.3663C21.8866 1.0383 20.9159 0.811637 19.4964 0.746748C18.0751 0.682748 17.6226 0.666748 14.0004 0.666748ZM14.0004 3.06941C17.5604 3.06941 17.9826 3.08275 19.3888 3.14675C20.6884 3.2063 21.3942 3.4223 21.8644 3.6063C22.4866 3.84719 22.9311 4.13697 23.3977 4.60275C23.8644 5.06941 24.1533 5.51386 24.3942 6.13608C24.5773 6.6063 24.7942 7.31208 24.8537 8.61164C24.9177 10.0179 24.9311 10.4401 24.9311 14.0001C24.9311 17.5601 24.9177 17.9823 24.8537 19.3885C24.7942 20.6881 24.5782 21.3939 24.3942 21.8641C24.1808 22.4432 23.8403 22.9672 23.3977 23.3974C22.9676 23.8401 22.4436 24.1806 21.8644 24.3939C21.3942 24.577 20.6884 24.7939 19.3888 24.8534C17.9826 24.9174 17.5613 24.9307 14.0004 24.9307C10.4395 24.9307 10.0182 24.9174 8.61194 24.8534C7.31239 24.7939 6.60661 24.5779 6.13639 24.3939C5.55724 24.1805 5.03328 23.84 4.60305 23.3974C4.16054 22.9671 3.82006 22.4432 3.60661 21.8641C3.4235 21.3939 3.20661 20.6881 3.14705 19.3885C3.08305 17.9823 3.06972 17.5601 3.06972 14.0001C3.06972 10.4401 3.08305 10.0179 3.14705 8.61164C3.20661 7.31208 3.42261 6.6063 3.60661 6.13608C3.8475 5.51386 4.13728 5.06941 4.60305 4.60275C5.03322 4.16012 5.55719 3.81962 6.13639 3.6063C6.60661 3.42319 7.31239 3.2063 8.61194 3.14675C10.0182 3.08275 10.4404 3.06941 14.0004 3.06941Z" fill="white"/>
<path fill-rule="evenodd" clip-rule="evenodd" d="M14.0004 18.449C13.4162 18.449 12.8377 18.3339 12.2979 18.1103C11.7581 17.8867 11.2677 17.559 10.8546 17.1459C10.4415 16.7328 10.1137 16.2424 9.89017 15.7026C9.66659 15.1628 9.55152 14.5843 9.55152 14.0001C9.55152 13.4158 9.66659 12.8373 9.89017 12.2976C10.1137 11.7578 10.4415 11.2674 10.8546 10.8542C11.2677 10.4411 11.7581 10.1134 12.2979 9.88984C12.8377 9.66627 13.4162 9.55119 14.0004 9.55119C15.1803 9.55119 16.3119 10.0199 17.1462 10.8542C17.9806 11.6886 18.4493 12.8202 18.4493 14.0001C18.4493 15.18 17.9806 16.3116 17.1462 17.1459C16.3119 17.9802 15.1803 18.449 14.0004 18.449ZM14.0004 7.14675C12.1828 7.14675 10.4396 7.86879 9.15437 9.15404C7.86912 10.4393 7.14707 12.1825 7.14707 14.0001C7.14707 15.8177 7.86912 17.5609 9.15437 18.8461C10.4396 20.1314 12.1828 20.8534 14.0004 20.8534C15.818 20.8534 17.5612 20.1314 18.8464 18.8461C20.1317 17.5609 20.8537 15.8177 20.8537 14.0001C20.8537 12.1825 20.1317 10.4393 18.8464 9.15404C17.5612 7.86879 15.818 7.14675 14.0004 7.14675ZM22.8475 7.0223C22.8475 7.45195 22.6768 7.86401 22.373 8.16782C22.0692 8.47163 21.6572 8.6423 21.2275 8.6423C20.7979 8.6423 20.3858 8.47163 20.082 8.16782C19.7782 7.86401 19.6075 7.45195 19.6075 7.0223C19.6075 6.59265 19.7782 6.1806 20.082 5.87679C20.3858 5.57298 20.7979 5.4023 21.2275 5.4023C21.6572 5.4023 22.0692 5.57298 22.373 5.87679C22.6768 6.1806 22.8475 6.59265 22.8475 7.0223Z" fill="white"/>
</svg>
