<svg width="28" height="28" viewBox="0 0 28 28" fill="none" xmlns="http://www.w3.org/2000/svg">
<path fill-rule="evenodd" clip-rule="evenodd" d="M27.3337 14.0001C27.3337 21.3639 21.3642 27.3334 14.0004 27.3334C6.63656 27.3334 0.667023 21.3639 0.667023 14.0001C0.667023 6.63628 6.63656 0.666748 14.0004 0.666748C21.3642 0.666748 27.3337 6.63628 27.3337 14.0001ZM14.4781 10.51C13.1813 11.0494 10.5894 12.1659 6.70245 13.8593C6.07127 14.1103 5.74063 14.3559 5.71053 14.596C5.65966 15.0018 6.1678 15.1615 6.85976 15.3791C6.95388 15.4087 7.0514 15.4394 7.15138 15.4719C7.83216 15.6932 8.74793 15.9521 9.22399 15.9623C9.65583 15.9717 10.1378 15.7936 10.6699 15.4282C14.3016 12.9768 16.1763 11.7377 16.294 11.7109C16.3771 11.6921 16.4921 11.6684 16.5701 11.7377C16.648 11.807 16.6404 11.9382 16.6321 11.9734C16.5818 12.188 14.5871 14.0424 13.5549 15.0021C13.2331 15.3012 13.0049 15.5134 12.9582 15.5619C12.8537 15.6705 12.7471 15.7732 12.6448 15.8719C12.0123 16.4816 11.538 16.9388 12.671 17.6854C13.2155 18.0442 13.6512 18.3409 14.0858 18.6369C14.5605 18.9602 15.034 19.2826 15.6466 19.6842C15.8026 19.7865 15.9517 19.8927 16.0969 19.9962C16.6493 20.3901 17.1456 20.7439 17.7588 20.6875C18.1151 20.6547 18.4831 20.3197 18.67 19.3205C19.1117 16.9591 19.9799 11.8428 20.1806 9.7345C20.1982 9.54978 20.176 9.31338 20.1583 9.20961C20.1405 9.10584 20.1034 8.95798 19.9685 8.84853C19.8088 8.7189 19.5622 8.69157 19.4519 8.69341C18.9504 8.70234 18.181 8.96988 14.4781 10.51Z" fill="white"/>
</svg>
