<svg width="28" height="23" viewBox="0 0 28 23" fill="none" xmlns="http://www.w3.org/2000/svg">
<path d="M27.3337 2.89951C26.3531 3.33405 25.2996 3.62766 24.1921 3.76037C25.3219 3.0839 26.1887 2.01046 26.5974 0.732681C25.5404 1.35983 24.3695 1.81551 23.1234 2.05979C22.1251 0.998103 20.7041 0.333374 19.1303 0.333374C16.1097 0.333374 13.6598 2.78324 13.6598 5.80623C13.6598 6.23372 13.7091 6.64947 13.8007 7.05113C9.25216 6.82212 5.22268 4.64354 2.52383 1.33399C2.05406 2.14435 1.78394 3.0839 1.78394 4.08451C1.78394 5.9824 2.7505 7.65831 4.21736 8.63896C3.3201 8.6096 2.47685 8.36415 1.73931 7.95427V8.02473C1.73931 10.6754 3.62427 12.8869 6.12817 13.3895C5.66779 13.514 5.1851 13.5798 4.68714 13.5798C4.33481 13.5798 3.9907 13.5469 3.65716 13.4835C4.3536 15.6562 6.37362 17.2393 8.76829 17.2816C6.89507 18.7497 4.53563 19.6246 1.97302 19.6246C1.53144 19.6246 1.09572 19.5988 0.667053 19.5483C3.08873 21.102 5.96374 22.0064 9.0525 22.0064C19.1174 22.0064 24.6196 13.6702 24.6196 6.44042C24.6196 6.20554 24.6137 5.9683 24.6032 5.73342C25.6719 4.96064 26.5997 3.99878 27.3314 2.90303L27.3337 2.89951Z" fill="white"/>
</svg>
